<?xml version="1.0" encoding="utf-8"?>
<!-- Generator: Adobe Illustrator 16.0.0, SVG Export Plug-In . SVG Version: 6.00 Build 0)  -->
<!DOCTYPE svg PUBLIC "-//W3C//DTD SVG 1.1//EN" "http://www.w3.org/Graphics/SVG/1.1/DTD/svg11.dtd">
<svg version="1.1" id="레이어_1" xmlns="http://www.w3.org/2000/svg" xmlns:xlink="http://www.w3.org/1999/xlink" x="0px"
	 y="0px" width="50px" height="50px" viewBox="0 0 30 30" enable-background="new 0 0 30 30" xml:space="preserve">
<path fill="#ACACAC" d="M17.958,7.295c0,0.998-0.809,1.807-1.807,1.807c-0.998,0-1.807-0.809-1.807-1.807
	c0-0.998,0.809-1.807,1.807-1.807C17.149,5.488,17.958,6.298,17.958,7.295z"/>
<path fill="#ACACAC" d="M10.567,1.875c-1.534,0-2.777,1.243-2.777,2.777v13.883c0,1.534,1.243,2.776,2.777,2.776h16.66
	c1.534,0,2.777-1.242,2.777-2.776V4.652c0-1.534-1.243-2.777-2.777-2.777H10.567z M27.227,3.264c0.768,0,1.389,0.621,1.389,1.388
	v9.024l-5.243-2.704c-0.268-0.134-0.591-0.082-0.801,0.129l-5.151,5.151l-3.693-2.46c-0.275-0.183-0.641-0.147-0.875,0.085
	l-3.673,3.27V4.652c0-0.767,0.622-1.388,1.388-1.388H27.227z"/>
<path fill="#ACACAC" d="M9.3,19.844c0.095,0.096,0.122,0.238,0.067,0.361l-3.666,8.247c-0.072,0.163-0.263,0.237-0.427,0.164
	c-0.075-0.033-0.135-0.094-0.166-0.169l-1.323-3.088l-3.089-1.322c-0.165-0.071-0.24-0.262-0.169-0.426
	c0.032-0.075,0.091-0.135,0.166-0.168l8.247-3.666C9.061,19.723,9.204,19.75,9.3,19.844L9.3,19.844z"/>
</svg>
